<?xml version="1.0" encoding="UTF-8" standalone="no"?>
<svg
   width="250"
   height="80"
   viewBox="0 0 250 80"
   fill="none"
   version="1.1"
   id="svg20"
   xmlns="http://www.w3.org/2000/svg"
   xmlns:svg="http://www.w3.org/2000/svg">
  <defs
     id="defs4">
    <style
       id="style2">
      @import url('https://fonts.googleapis.com/css2?family=Comfortaa:wght@500&amp;display=swap');
    </style>
  </defs>
  <ellipse
     cx="32"
     cy="40"
     rx="20"
     ry="25"
     fill="#5D3D8C"
     opacity="0.95"
     transform="rotate(-25 32 40)"
     id="ellipse6" />
  <ellipse
     cx="28"
     cy="35"
     rx="2"
     ry="3.5"
     fill="#9E7BB5"
     transform="rotate(-25 28 35)"
     id="ellipse8" />
  <ellipse
     cx="36"
     cy="35"
     rx="2"
     ry="3.5"
     fill="#9E7BB5"
     transform="rotate(-25 36 35)"
     id="ellipse10" />
  <ellipse
     cx="57"
     cy="37"
     rx="22"
     ry="28"
     fill="#9E7BB5"
     opacity="0.75"
     transform="rotate(15 57 37)"
     id="ellipse12" />
  <ellipse
     cx="53"
     cy="31"
     rx="2"
     ry="3.5"
     fill="#5D3D8C"
     transform="rotate(15 53 31)"
     id="ellipse14" />
  <ellipse
     cx="61"
     cy="31"
     rx="2"
     ry="3.5"
     fill="#5D3D8C"
     transform="rotate(15 61 31)"
     id="ellipse16" />
  <g
     aria-label="Caresse"
     id="text18"
     style="font-weight:500;font-size:38px;font-family:Comfortaa;letter-spacing:-0.5;fill:#5d3d8c">
    <path
       d="m 112.138,52.38 q -4.028,0 -7.41,-2.052 -3.382,-2.052 -5.396,-5.548 -1.976,-3.496 -1.976,-7.638 0,-4.104 1.976,-7.6 1.976,-3.496 5.358,-5.548 3.382,-2.052 7.448,-2.052 2.736,0 4.978,0.798 2.242,0.798 4.332,2.546 0.418,0.304 0.418,0.874 0,0.304 -0.152,0.57 -0.152,0.228 -0.418,0.342 -0.076,0.266 -0.342,0.418 -0.266,0.152 -0.57,0.152 -0.57,0 -0.95,-0.342 -1.482,-1.33 -3.23,-1.938 -1.748,-0.608 -4.066,-0.608 -3.192,0 -5.928,1.71 -2.736,1.672 -4.37,4.522 -1.596,2.85 -1.596,6.156 0,3.382 1.596,6.232 1.596,2.85 4.332,4.522 2.736,1.672 5.966,1.672 4.142,0 7.486,-2.66 0.418,-0.304 0.836,-0.304 0.57,0 0.988,0.418 0.418,0.38 0.418,1.026 0,0.608 -0.418,1.064 -3.572,3.268 -9.31,3.268 z"
       id="path24" />
    <path
       d="m 135.616,31.024 q 2.964,0 5.358,1.406 2.432,1.368 3.8,3.8 1.406,2.432 1.406,5.396 v 8.93 q 0,0.608 -0.418,1.026 -0.418,0.418 -1.064,0.418 -0.646,0 -1.064,-0.38 -0.418,-0.418 -0.418,-1.064 v -2.28 q -1.33,1.824 -3.382,2.888 -2.052,1.026 -4.522,1.026 -2.888,0 -5.244,-1.368 -2.318,-1.406 -3.686,-3.8 -1.33,-2.432 -1.33,-5.396 0,-2.964 1.368,-5.396 1.406,-2.432 3.8,-3.8 2.432,-1.406 5.396,-1.406 z m 0,18.506 q 2.166,0 3.914,-1.026 1.748,-1.026 2.736,-2.812 1.026,-1.824 1.026,-4.066 0,-2.242 -1.026,-4.028 -0.988,-1.824 -2.736,-2.85 -1.748,-1.064 -3.914,-1.064 -2.166,0 -3.952,1.064 -1.748,1.026 -2.774,2.85 -0.988,1.786 -0.988,4.028 0,2.242 0.988,4.066 1.026,1.786 2.774,2.812 1.786,1.026 3.952,1.026 z"
       id="path26" />
    <path
       d="m 160.766,30.986 q 1.596,0 2.508,0.418 0.95,0.418 0.95,1.178 0,0.228 -0.038,0.342 -0.152,0.532 -0.494,0.722 -0.304,0.19 -0.874,0.19 -0.342,0 -1.178,-0.076 -0.304,-0.038 -0.912,-0.038 -2.85,0 -4.674,1.52 -1.786,1.52 -1.786,3.952 v 11.362 q 0,0.684 -0.38,1.064 -0.38,0.38 -1.064,0.38 -0.684,0 -1.064,-0.38 -0.38,-0.38 -0.38,-1.064 V 32.658 q 0,-0.684 0.38,-1.064 0.38,-0.38 1.064,-0.38 0.684,0 1.064,0.38 0.38,0.38 0.38,1.064 v 1.672 q 1.102,-1.596 2.812,-2.47 1.71,-0.874 3.686,-0.874 z"
       id="path28" />
    <path
       d="m 175.16201,31.024 q 2.812,0 4.978,1.33 2.166,1.292 3.344,3.61 1.216,2.318 1.216,5.282 0,0.608 -0.38,0.988 -0.38,0.342 -0.988,0.342 h -15.352 q 0.304,3.116 2.432,5.054 2.128,1.938 5.32,1.938 1.368,0 2.736,-0.456 1.406,-0.494 2.242,-1.216 0.494,-0.38 1.026,-0.38 0.418,0 0.836,0.304 0.494,0.456 0.494,1.026 0,0.494 -0.418,0.874 -1.254,1.064 -3.192,1.786 -1.938,0.684 -3.724,0.684 -3.04,0 -5.434,-1.33 -2.394,-1.368 -3.762,-3.762 -1.33,-2.432 -1.33,-5.472 0,-3.078 1.254,-5.472 1.292,-2.432 3.534,-3.762 2.28,-1.368 5.168,-1.368 z m 0,2.622 q -2.888,0 -4.788,1.786 -1.9,1.786 -2.318,4.712 h 13.908 q -0.304,-2.926 -2.128,-4.712 -1.824,-1.786 -4.674,-1.786 z"
       id="path30" />
    <path
       d="m 196.39802,52.19 q -2.356,0 -4.522,-0.798 -2.166,-0.798 -3.496,-2.242 -0.38,-0.456 -0.38,-0.874 0,-0.646 0.608,-1.14 0.456,-0.342 0.95,-0.342 0.646,0 1.102,0.532 0.912,1.064 2.394,1.634 1.52,0.57 3.344,0.57 2.66,0 3.99,-0.912 1.33,-0.912 1.368,-2.394 0,-1.368 -1.33,-2.28 -1.33,-0.912 -4.218,-1.368 -3.724,-0.608 -5.586,-2.09 -1.824,-1.52 -1.824,-3.648 0,-2.774 2.128,-4.294 2.166,-1.52 5.396,-1.52 2.508,0 4.37,0.874 1.862,0.836 3.002,2.356 0.304,0.494 0.304,0.874 0,0.646 -0.608,1.026 -0.266,0.19 -0.722,0.19 -0.798,0 -1.33,-0.57 -1.862,-2.128 -5.092,-2.128 -2.09,0 -3.344,0.874 -1.254,0.836 -1.254,2.128 0,1.368 1.178,2.204 1.178,0.798 4.18,1.292 4.066,0.684 5.814,2.242 1.748,1.52 1.748,3.8 0,1.748 -1.064,3.116 -1.026,1.368 -2.888,2.128 -1.862,0.76 -4.218,0.76 z"
       id="path32" />
    <path
       d="m 216.38,52.19 q -2.356,0 -4.522,-0.798 -2.166,-0.798 -3.496,-2.242 -0.38,-0.456 -0.38,-0.874 0,-0.646 0.608,-1.14 0.456,-0.342 0.95,-0.342 0.646,0 1.102,0.532 0.912,1.064 2.394,1.634 1.52,0.57 3.344,0.57 2.66,0 3.99,-0.912 1.33,-0.912 1.368,-2.394 0,-1.368 -1.33,-2.28 -1.33,-0.912 -4.218,-1.368 -3.724,-0.608 -5.586,-2.09 -1.824,-1.52 -1.824,-3.648 0,-2.774 2.128,-4.294 2.166,-1.52 5.396,-1.52 2.508,0 4.37,0.874 1.862,0.836 3.002,2.356 0.304,0.494 0.304,0.874 0,0.646 -0.608,1.026 -0.266,0.19 -0.722,0.19 -0.798,0 -1.33,-0.57 -1.862,-2.128 -5.092,-2.128 -2.09,0 -3.344,0.874 -1.254,0.836 -1.254,2.128 0,1.368 1.178,2.204 1.178,0.798 4.18,1.292 4.066,0.684 5.814,2.242 1.748,1.52 1.748,3.8 0,1.748 -1.064,3.116 -1.026,1.368 -2.888,2.128 -1.862,0.76 -4.218,0.76 z"
       id="path34" />
    <path
       d="m 237.95799,31.024 q 2.812,0 4.978,1.33 2.166,1.292 3.344,3.61 1.216,2.318 1.216,5.282 0,0.608 -0.38,0.988 -0.38,0.342 -0.988,0.342 h -15.352 q 0.304,3.116 2.432,5.054 2.128,1.938 5.32,1.938 1.368,0 2.736,-0.456 1.406,-0.494 2.242,-1.216 0.494,-0.38 1.026,-0.38 0.418,0 0.836,0.304 0.494,0.456 0.494,1.026 0,0.494 -0.418,0.874 -1.254,1.064 -3.192,1.786 -1.938,0.684 -3.724,0.684 -3.04,0 -5.434,-1.33 -2.394,-1.368 -3.762,-3.762 -1.33,-2.432 -1.33,-5.472 0,-3.078 1.254,-5.472 1.292,-2.432 3.534,-3.762 2.28,-1.368 5.168,-1.368 z m 0,2.622 q -2.888,0 -4.788,1.786 -1.9,1.786 -2.318,4.712 h 13.908 q -0.304,-2.926 -2.128,-4.712 -1.824,-1.786 -4.674,-1.786 z"
       id="path36" />
  </g>
</svg>
